<svg t="1733991786493" class="icon" viewBox="0 0 1024 1024" version="1.1" xmlns="http://www.w3.org/2000/svg" p-id="2302" width="20" height="20"><path d="M896 128a128 128 0 1 0-164.010667 122.88V378.453333l-220.288 220.16-220.202666-220.16V251.008A128.042667 128.042667 0 0 0 256 0a128 128 0 0 0-36.48 250.709333v156.885334l-0.298667 0.298666 256.768 256.810667v108.373333A128.085333 128.085333 0 0 0 512 1024a128 128 0 0 0 36.010667-250.88v-108.928L804.266667 407.893333l-0.298667-0.298666V250.88A128.085333 128.085333 0 0 0 896 128zM199.978667 128a56.021333 56.021333 0 1 1 112.085333 0.085333A56.021333 56.021333 0 0 1 199.978667 128z m368 768a56.021333 56.021333 0 1 1-112.042667-0.085333 56.021333 56.021333 0 0 1 112.085333 0.085333zM768 183.978667a56.021333 56.021333 0 1 1 0.085333-112.042667A56.021333 56.021333 0 0 1 768 184.021333z" fill="#000000" opacity=".65" p-id="2303"></path></svg>