<svg data-v-0dd9719b="" version="1.0" xmlns="http://www.w3.org/2000/svg" xmlns:xlink="http://www.w3.org/1999/xlink" width="100%" height="100%" viewBox="0 0 340.000000 250.000000" preserveAspectRatio="xMidYMid meet" color-interpolation-filters="sRGB" style="margin: auto;"> <rect data-v-0dd9719b="" x="0" y="0" width="100%" height="100%" fill="#ffffff" fill-opacity="0" class="background"></rect> <rect data-v-0dd9719b="" x="0" y="0" width="100%" height="100%" fill="url(#watermark)" fill-opacity="1" class="watermarklayer"></rect> <g data-v-0dd9719b="" fill="#333333" class="endsvg" transform="translate(46.035003662109375,106.77999877929688)"><!----> <g class="tp-name"><g><rect data-gra="graph-name-bg" stroke-width="2" class="i-icon-bg" x="0" y="0" width="247.92999267578125" height="36.44000244140625" fill-opacity="0"></rect> <!----> <!----> </g> <g transform="translate(0,0)"><g data-gra="path-name-bg"><g><rect data-gra="graph-name-bg" stroke-width="2" class="i-icon-bg" x="0" y="0" width="120.05999755859375" height="36.44000244140625" fill-opacity="0"></rect> <!----> <!----> </g> <g transform="translate(5,7)"><rect data-gra="graph-name-bg" x="0" y="-7" width="110.05999755859375" height="2" fill="#333333"></rect> <rect data-gra="graph-name-bg" x="0" y="27.44000244140625" width="110.05999755859375" height="2" fill="#333333"></rect> <g data-gra="path-name" fill="#333333"><g transform="scale(1)"><path d="M18.32-12.88L18.50-3.00Q17.80-2.13 16.79-1.48Q15.78-0.84 14.61-0.41Q13.45 0.01 12.23 0.23Q11.01 0.44 9.91 0.44L9.91 0.44Q7.78 0.44 5.98-0.32Q4.19-1.09 2.89-2.43Q1.59-3.78 0.85-5.60Q0.12-7.42 0.12-9.53L0.12-9.53Q0.12-11.13 0.49-12.67Q0.85-14.20 1.54-15.56Q2.22-16.92 3.21-18.06Q4.19-19.20 5.44-20.02Q6.69-20.85 8.17-21.30Q9.66-21.76 11.35-21.76L11.35-21.76Q11.98-21.76 12.70-21.71Q13.42-21.66 14.14-21.53Q14.85-21.41 15.53-21.19Q16.20-20.97 16.76-20.64L16.76-20.64L16.35-15.03Q15.53-15.33 14.65-15.44Q13.78-15.55 12.94-15.55L12.94-15.55Q11.76-15.55 10.74-15.19Q9.72-14.83 8.96-14.16Q8.20-13.48 7.76-12.51Q7.32-11.54 7.32-10.32L7.32-10.32Q7.32-9.56 7.53-8.84Q7.73-8.13 8.15-7.58Q8.57-7.03 9.20-6.69Q9.82-6.35 10.64-6.35L10.64-6.35Q11.20-6.35 11.80-6.50Q12.39-6.65 12.82-7.00L12.82-7.00L12.88-8.14L9.35-8.20L9.53-12.61Q11.72-12.69 13.91-12.74Q16.10-12.79 18.32-12.88L18.32-12.88ZM19.73-20.29L27.55-20.70L25.93-0.68L19.73-0.35L19.73-20.29ZM28.08-20.99L44.11-21.02L43.96-14.79L39.58-14.61L38.46-0.68L32.26-0.35L32.29-14.29L27.90-14.06L28.08-20.99ZM61.90-20.97L62.37 0L55.02 0.35L54.96-6.44L51.58-6.44L51.37 0L44.78 0L45.34-20.67L52.34-20.35L51.90-9.79L55.16-9.79L55.19-21.14L61.90-20.97ZM81.35-16.35L81.35-16.35Q81.35-15.26 81.24-13.95Q81.14-12.64 80.91-11.25Q80.67-9.85 80.30-8.42Q79.92-6.98 79.36-5.66Q78.80-4.34 78.06-3.18Q77.32-2.03 76.36-1.17Q75.39-0.31 74.20 0.18Q73.01 0.68 71.56 0.68L71.56 0.68Q69.85 0.68 68.59 0.12Q67.34-0.43 66.44-1.36Q65.54-2.29 64.97-3.54Q64.40-4.78 64.07-6.17Q63.75-7.56 63.62-9.01Q63.50-10.45 63.50-11.79L63.50-11.79Q63.50-13.85 63.70-15.90Q63.91-17.95 64.29-19.99L64.29-19.99L71.17-19.73Q70.78-17.42 70.49-15.09Q70.20-12.76 70.20-10.41L70.20-10.41Q70.20-10.16 70.22-9.67Q70.25-9.17 70.31-8.56Q70.36-7.95 70.47-7.31Q70.58-6.67 70.78-6.15Q70.97-5.62 71.24-5.28Q71.51-4.94 71.88-4.94L71.88-4.94Q72.31-4.94 72.64-5.34Q72.98-5.75 73.24-6.42Q73.50-7.10 73.69-7.98Q73.88-8.87 74.01-9.82Q74.14-10.78 74.22-11.73Q74.30-12.69 74.36-13.51Q74.41-14.33 74.42-14.97Q74.44-15.60 74.44-15.91L74.44-15.91Q74.44-17.05 74.40-18.19Q74.36-19.33 74.29-20.47L74.29-20.47L81.17-20.47Q81.35-18.44 81.35-16.35ZM99.64-5.23L99.64-5.23Q99.64-4.01 99.19-3.13Q98.74-2.25 97.99-1.63Q97.24-1.01 96.26-0.62Q95.28-0.24 94.23-0.01Q93.17 0.21 92.10 0.28Q91.04 0.35 90.11 0.35L90.11 0.35Q89.20 0.35 88.22 0.29Q87.24 0.22 86.27 0.06Q85.30-0.10 84.36-0.37Q83.42-0.65 82.58-1.06L82.58-1.06L82.55-19.99Q83.38-20.33 84.30-20.61Q85.23-20.88 86.19-21.06Q87.15-21.24 88.11-21.34Q89.07-21.44 89.96-21.44L89.96-21.44Q91.01-21.44 92.07-21.30Q93.14-21.17 94.12-20.86Q95.11-20.55 95.96-20.06Q96.81-19.57 97.45-18.85Q98.09-18.13 98.45-17.17Q98.81-16.22 98.81-14.97L98.81-14.97Q98.81-14.14 98.58-13.42Q98.34-12.70 97.90-12.13Q97.46-11.56 96.83-11.15Q96.20-10.75 95.40-10.56L95.40-10.56Q96.36-10.31 97.14-9.82Q97.93-9.34 98.48-8.64Q99.03-7.95 99.33-7.09Q99.64-6.22 99.64-5.23ZM92.17-13.61L92.17-13.61Q92.17-14.04 91.99-14.34Q91.81-14.64 91.56-14.83Q91.30-15.03 91.00-15.11Q90.70-15.20 90.46-15.20L90.46-15.20Q90.17-15.20 89.89-15.11Q89.61-15.03 89.34-14.91L89.34-14.91L89.26-11.64Q89.59-11.64 90.09-11.70Q90.59-11.76 91.06-11.96Q91.52-12.16 91.84-12.55Q92.17-12.94 92.17-13.61ZM90.08-8.82L90.08-8.82Q89.65-8.82 89.26-8.73L89.26-8.73L89.20-5.38Q89.42-5.34 89.63-5.30Q89.84-5.26 90.05-5.26L90.05-5.26Q90.36-5.26 90.73-5.33Q91.09-5.40 91.42-5.59Q91.74-5.79 91.95-6.13Q92.17-6.47 92.17-7.03L92.17-7.03Q92.17-7.59 91.95-7.94Q91.74-8.29 91.43-8.49Q91.12-8.69 90.76-8.76Q90.39-8.82 90.08-8.82ZM110.18-7.94L100.68-8.12L100.62-12.53L110.12-12.97L110.18-7.94Z" transform="translate(-0.11761697775504985, 21.75914088468422)"></path></g></g></g></g> <g data-gra="path-name-1-bg" transform="translate(120.05999755859375,0)" mask="url(#d548d065-4b09-4a62-90dd-5bcdf6164409)"><g><rect data-gra="graph-name-bg" stroke-width="2" class="i-icon-bg" x="0" y="0" width="127.87000274658203" height="36.44000244140625" fill="#333333"></rect> <!----> <!----> </g> <g transform="translate(5,7)"><g data-gra="path-name-1" fill="#333333"><g transform="scale(1)"><path d="M17.98-14.17L17.98-14.17Q17.98-13.03 17.78-12.09Q17.58-11.16 17.16-10.38Q16.73-9.60 16.05-8.94Q15.38-8.28 14.42-7.67L14.42-7.67L17.92-1.44L11.31-0.15L9.04-6.41L7.22-6.35L6.95-0.24L0.63-0.24Q0.71-3.59 0.77-6.91Q0.84-10.23 0.93-13.58L0.93-13.58Q0.96-15.28 0.99-16.94Q1.01-18.60 1.10-20.29L1.10-20.29Q2.13-20.67 3.13-20.92Q4.13-21.17 5.14-21.31Q6.15-21.45 7.18-21.50Q8.22-21.55 9.31-21.55L9.31-21.55Q10.98-21.55 12.55-21.09Q14.11-20.63 15.32-19.70Q16.53-18.77 17.25-17.39Q17.98-16.01 17.98-14.17ZM11.39-13.70L11.39-13.70Q11.39-14.32 11.23-14.83Q11.06-15.35 10.73-15.72Q10.39-16.10 9.90-16.31Q9.41-16.53 8.75-16.53L8.75-16.53Q8.45-16.53 8.17-16.49Q7.90-16.45 7.63-16.38L7.63-16.38L7.40-10.91L7.75-10.91Q8.38-10.91 9.03-11.07Q9.69-11.23 10.21-11.57Q10.73-11.91 11.06-12.44Q11.39-12.97 11.39-13.70ZM31.80-21.05L37.53-1.26L30.24-0.32L29.36-3.65L26.01-3.65L25.27-0.32L17.77-1.06L23.63-20.64L31.80-21.05ZM26.63-8.14L28.83-8.14L27.71-13.26L26.63-8.14ZM50.90-20.85L57.84-21.08L56.78-1.15L49.08-0.44L44.96-11.11L44.31-0.24L37.70-0.24L38.23-21.08L45.58-21.44L50.66-10.85L50.90-20.85ZM75.69-11.67L75.69-11.67Q75.69-9.62 75.16-7.96Q74.63-6.31 73.68-5.02Q72.73-3.73 71.42-2.81Q70.11-1.88 68.56-1.29Q67.00-0.69 65.24-0.40Q63.48-0.12 61.63-0.12L61.63-0.12Q60.94-0.12 60.28-0.15Q59.62-0.19 58.93-0.26L58.93-0.26L59.34-19.99Q60.95-20.51 62.67-20.72Q64.38-20.94 66.07-20.94L66.07-20.94Q68.17-20.94 69.94-20.30Q71.70-19.67 72.98-18.48Q74.26-17.29 74.97-15.57Q75.69-13.85 75.69-11.67ZM69.66-10.53L69.66-10.73Q69.67-11.53 69.49-12.26Q69.31-13.00 68.89-13.56Q68.47-14.13 67.82-14.47Q67.17-14.82 66.28-14.85L66.28-14.85L65.69-5.73Q66.57-5.87 67.29-6.31Q68.01-6.76 68.53-7.42Q69.06-8.07 69.34-8.87Q69.63-9.67 69.66-10.53L69.66-10.53ZM94.74-10.38L94.74-10.38Q94.74-9.04 94.43-7.80Q94.12-6.56 93.54-5.47Q92.96-4.38 92.13-3.48Q91.30-2.57 90.26-1.93Q89.23-1.28 88.01-0.92Q86.79-0.56 85.42-0.56L85.42-0.56Q84.10-0.56 82.90-0.90Q81.70-1.23 80.66-1.85Q79.61-2.46 78.77-3.32Q77.92-4.18 77.33-5.23Q76.73-6.28 76.40-7.48Q76.07-8.69 76.07-10.00L76.07-10.00Q76.07-11.28 76.38-12.50Q76.69-13.73 77.27-14.82Q77.85-15.91 78.67-16.82Q79.49-17.73 80.52-18.39Q81.54-19.05 82.73-19.42Q83.92-19.79 85.24-19.79L85.24-19.79Q87.37-19.79 89.13-19.13Q90.89-18.47 92.13-17.24Q93.37-16.01 94.06-14.27Q94.74-12.53 94.74-10.38ZM88.21-10.00L88.21-10.00Q88.21-10.63 88.03-11.23Q87.85-11.82 87.49-12.28Q87.14-12.75 86.62-13.03Q86.10-13.32 85.42-13.32L85.42-13.32Q84.73-13.32 84.18-13.07Q83.64-12.82 83.25-12.39Q82.86-11.95 82.66-11.37Q82.45-10.79 82.45-10.14L82.45-10.14Q82.45-9.53 82.63-8.91Q82.80-8.29 83.16-7.79Q83.51-7.29 84.03-6.98Q84.55-6.67 85.24-6.67L85.24-6.67Q85.93-6.67 86.49-6.95Q87.04-7.22 87.42-7.68Q87.80-8.14 88.01-8.75Q88.21-9.35 88.21-10.00ZM110.59-21.44L118.50-21.44L117.15 0.15L110.44 0.44L110.50-10.94L107.47-1.76L104.88-1.76L102.56-9.97L102.53-0.44L95.74-0.24L96.03-20.55L103.59-20.85L106.59-11.11L110.59-21.44Z" transform="translate(-0.6321912554333929, 21.75914088468422)"></path></g></g></g></g></g></g> <!----> <!----> <!----> <!----> <!----></g><defs v-gra="od"></defs><mask id="d548d065-4b09-4a62-90dd-5bcdf6164409"><g fill="white"><rect data-gra="graph-name-bg" stroke-width="2" class="i-icon-bg" x="0" y="0" width="127.87000274658203" height="36.44000244140625"></rect>   </g> <g transform="translate(5,7)" fill="black"><g data-gra="path-name-1"><g transform="scale(1)"><path d="M17.98-14.17L17.98-14.17Q17.98-13.03 17.78-12.09Q17.58-11.16 17.16-10.38Q16.73-9.60 16.05-8.94Q15.38-8.28 14.42-7.67L14.42-7.67L17.92-1.44L11.31-0.15L9.04-6.41L7.22-6.35L6.95-0.24L0.63-0.24Q0.71-3.59 0.77-6.91Q0.84-10.23 0.93-13.58L0.93-13.58Q0.96-15.28 0.99-16.94Q1.01-18.60 1.10-20.29L1.10-20.29Q2.13-20.67 3.13-20.92Q4.13-21.17 5.14-21.31Q6.15-21.45 7.18-21.50Q8.22-21.55 9.31-21.55L9.31-21.55Q10.98-21.55 12.55-21.09Q14.11-20.63 15.32-19.70Q16.53-18.77 17.25-17.39Q17.98-16.01 17.98-14.17ZM11.39-13.70L11.39-13.70Q11.39-14.32 11.23-14.83Q11.06-15.35 10.73-15.72Q10.39-16.10 9.90-16.31Q9.41-16.53 8.75-16.53L8.75-16.53Q8.45-16.53 8.17-16.49Q7.90-16.45 7.63-16.38L7.63-16.38L7.40-10.91L7.75-10.91Q8.38-10.91 9.03-11.07Q9.69-11.23 10.21-11.57Q10.73-11.91 11.06-12.44Q11.39-12.97 11.39-13.70ZM31.80-21.05L37.53-1.26L30.24-0.32L29.36-3.65L26.01-3.65L25.27-0.32L17.77-1.06L23.63-20.64L31.80-21.05ZM26.63-8.14L28.83-8.14L27.71-13.26L26.63-8.14ZM50.90-20.85L57.84-21.08L56.78-1.15L49.08-0.44L44.96-11.11L44.31-0.24L37.70-0.24L38.23-21.08L45.58-21.44L50.66-10.85L50.90-20.85ZM75.69-11.67L75.69-11.67Q75.69-9.62 75.16-7.96Q74.63-6.31 73.68-5.02Q72.73-3.73 71.42-2.81Q70.11-1.88 68.56-1.29Q67.00-0.69 65.24-0.40Q63.48-0.12 61.63-0.12L61.63-0.12Q60.94-0.12 60.28-0.15Q59.62-0.19 58.93-0.26L58.93-0.26L59.34-19.99Q60.95-20.51 62.67-20.72Q64.38-20.94 66.07-20.94L66.07-20.94Q68.17-20.94 69.94-20.30Q71.70-19.67 72.98-18.48Q74.26-17.29 74.97-15.57Q75.69-13.85 75.69-11.67ZM69.66-10.53L69.66-10.73Q69.67-11.53 69.49-12.26Q69.31-13.00 68.89-13.56Q68.47-14.13 67.82-14.47Q67.17-14.82 66.28-14.85L66.28-14.85L65.69-5.73Q66.57-5.87 67.29-6.31Q68.01-6.76 68.53-7.42Q69.06-8.07 69.34-8.87Q69.63-9.67 69.66-10.53L69.66-10.53ZM94.74-10.38L94.74-10.38Q94.74-9.04 94.43-7.80Q94.12-6.56 93.54-5.47Q92.96-4.38 92.13-3.48Q91.30-2.57 90.26-1.93Q89.23-1.28 88.01-0.92Q86.79-0.56 85.42-0.56L85.42-0.56Q84.10-0.56 82.90-0.90Q81.70-1.23 80.66-1.85Q79.61-2.46 78.77-3.32Q77.92-4.18 77.33-5.23Q76.73-6.28 76.40-7.48Q76.07-8.69 76.07-10.00L76.07-10.00Q76.07-11.28 76.38-12.50Q76.69-13.73 77.27-14.82Q77.85-15.91 78.67-16.82Q79.49-17.73 80.52-18.39Q81.54-19.05 82.73-19.42Q83.92-19.79 85.24-19.79L85.24-19.79Q87.37-19.79 89.13-19.13Q90.89-18.47 92.13-17.24Q93.37-16.01 94.06-14.27Q94.74-12.53 94.74-10.38ZM88.21-10.00L88.21-10.00Q88.21-10.63 88.03-11.23Q87.85-11.82 87.49-12.28Q87.14-12.75 86.62-13.03Q86.10-13.32 85.42-13.32L85.42-13.32Q84.73-13.32 84.18-13.07Q83.64-12.82 83.25-12.39Q82.86-11.95 82.66-11.37Q82.45-10.79 82.45-10.14L82.45-10.14Q82.45-9.53 82.63-8.91Q82.80-8.29 83.16-7.79Q83.51-7.29 84.03-6.98Q84.55-6.67 85.24-6.67L85.24-6.67Q85.93-6.67 86.49-6.95Q87.04-7.22 87.42-7.68Q87.80-8.14 88.01-8.75Q88.21-9.35 88.21-10.00ZM110.59-21.44L118.50-21.44L117.15 0.15L110.44 0.44L110.50-10.94L107.47-1.76L104.88-1.76L102.56-9.97L102.53-0.44L95.74-0.24L96.03-20.55L103.59-20.85L106.59-11.11L110.59-21.44Z" transform="translate(-0.6321912554333929, 21.75914088468422)"></path></g></g></g></mask></svg>