<?xml version="1.0" encoding="UTF-8" standalone="no" ?>
<!DOCTYPE svg PUBLIC "-//W3C//DTD SVG 1.1//EN" "http://www.w3.org/Graphics/SVG/1.1/DTD/svg11.dtd">
<svg xmlns="http://www.w3.org/2000/svg" xmlns:xlink="http://www.w3.org/1999/xlink" version="1.1" width="100" height="100" viewBox="0 0 100 100" xml:space="preserve">
<desc>Created with Fabric.js 3.6.6</desc>
<defs>
</defs>
<g transform="matrix(1 0 0 1 334.44 200)"  >
<g style=""   >
		<g transform="matrix(1 0 0 1 -13.4 -15.05)"  >
<path style="stroke: none; stroke-width: 1; stroke-dasharray: none; stroke-linecap: butt; stroke-dashoffset: 0; stroke-linejoin: miter; stroke-miterlimit: 4; fill: rgb(215,47,90); fill-rule: nonzero; opacity: 1;"  transform=" translate(-7.05, -9.95)" d="M 9.85 13.9 a 1.61 1.61 0 0 1 -1 -0.37 l -5.62 -4.7 a 1.6 1.6 0 0 1 2.06 -2.45 l 5.59 4.7 a 1.6 1.6 0 0 1 -1 2.82 z" stroke-linecap="round" />
</g>
		<g transform="matrix(1 0 0 1 -18.85 -17.99)"  >
<path style="stroke: none; stroke-width: 1; stroke-dasharray: none; stroke-linecap: butt; stroke-dashoffset: 0; stroke-linejoin: miter; stroke-miterlimit: 4; fill: rgb(232,135,51); fill-rule: nonzero; opacity: 1;"  transform=" translate(-1.6, -7.01)" d="M 1.61 14 A 1.6 1.6 0 0 1 0 12.36 V 1.61 a 1.6 1.6 0 0 1 3.2 0 v 10.75 A 1.6 1.6 0 0 1 1.61 14 z" stroke-linecap="round" />
</g>
		<g transform="matrix(1 0 0 1 -15.38 -21.9)"  >
<path style="stroke: none; stroke-width: 1; stroke-dasharray: none; stroke-linecap: butt; stroke-dashoffset: 0; stroke-linejoin: miter; stroke-miterlimit: 4; fill: rgb(112,176,190); fill-rule: nonzero; opacity: 1;"  transform=" translate(-5.06, -3.1)" d="M 8.53 6.2 a 1.6 1.6 0 0 1 -1.6 -1.6 a 1.41 1.41 0 0 0 -1.25 -1.39 H 1.6 A 1.6 1.6 0 0 1 1.6 0 h 4.3 a 4.63 4.63 0 0 1 4.23 4.6 a 1.6 1.6 0 0 1 -1.6 1.6 z m -2.81 -3 z m -0.08 0 z" stroke-linecap="round" />
</g>
		<g transform="matrix(1 0 0 1 -15.38 -18.89)"  >
<path style="stroke: none; stroke-width: 1; stroke-dasharray: none; stroke-linecap: butt; stroke-dashoffset: 0; stroke-linejoin: miter; stroke-miterlimit: 4; fill: rgb(0,173,168); fill-rule: nonzero; opacity: 1;"  transform=" translate(-5.06, -6.1)" d="M 1.6 9.21 A 1.6 1.6 0 0 1 1.6 6 h 4.07 a 1.41 1.41 0 0 0 1.26 -1.4 a 1.6 1.6 0 1 1 3.2 0 a 4.63 4.63 0 0 1 -4.27 4.6 z M 5.64 6 z" stroke-linecap="round" />
</g>
</g>
</g>
<g transform="matrix(5.69 0 0 5.69 139.44 153.22)"  >
<g style=""   >
		<g transform="matrix(1 0 0 1 -13.39 -15.05)"  >
<path style="stroke: none; stroke-width: 1; stroke-dasharray: none; stroke-linecap: butt; stroke-dashoffset: 0; stroke-linejoin: miter; stroke-miterlimit: 4; fill: rgb(215,47,90); fill-rule: nonzero; opacity: 1;"  transform=" translate(-7.05, -9.95)" d="M 9.85 13.9 a 1.61 1.61 0 0 1 -1 -0.37 l -5.62 -4.7 a 1.6 1.6 0 0 1 2.06 -2.45 l 5.59 4.7 a 1.6 1.6 0 0 1 -1 2.82 z" stroke-linecap="round" />
</g>
		<g transform="matrix(1 0 0 1 -18.85 -17.99)"  >
<path style="stroke: none; stroke-width: 1; stroke-dasharray: none; stroke-linecap: butt; stroke-dashoffset: 0; stroke-linejoin: miter; stroke-miterlimit: 4; fill: rgb(232,135,51); fill-rule: nonzero; opacity: 1;"  transform=" translate(-1.6, -7.01)" d="M 1.61 14 A 1.6 1.6 0 0 1 0 12.36 V 1.61 a 1.6 1.6 0 0 1 3.2 0 v 10.75 A 1.6 1.6 0 0 1 1.61 14 z" stroke-linecap="round" />
</g>
		<g transform="matrix(1 0 0 1 -15.38 -21.9)"  >
<path style="stroke: none; stroke-width: 1; stroke-dasharray: none; stroke-linecap: butt; stroke-dashoffset: 0; stroke-linejoin: miter; stroke-miterlimit: 4; fill: rgb(112,176,190); fill-rule: nonzero; opacity: 1;"  transform=" translate(-5.06, -3.1)" d="M 8.53 6.2 a 1.6 1.6 0 0 1 -1.6 -1.6 a 1.41 1.41 0 0 0 -1.25 -1.39 H 1.6 A 1.6 1.6 0 0 1 1.6 0 h 4.3 a 4.63 4.63 0 0 1 4.23 4.6 a 1.6 1.6 0 0 1 -1.6 1.6 z m -2.81 -3 z m -0.08 0 z" stroke-linecap="round" />
</g>
		<g transform="matrix(1 0 0 1 -15.38 -18.9)"  >
<path style="stroke: none; stroke-width: 1; stroke-dasharray: none; stroke-linecap: butt; stroke-dashoffset: 0; stroke-linejoin: miter; stroke-miterlimit: 4; fill: rgb(0,173,168); fill-rule: nonzero; opacity: 1;"  transform=" translate(-5.06, -6.1)" d="M 1.6 9.21 A 1.6 1.6 0 0 1 1.6 6 h 4.07 a 1.41 1.41 0 0 0 1.26 -1.4 a 1.6 1.6 0 1 1 3.2 0 a 4.63 4.63 0 0 1 -4.27 4.6 z M 5.64 6 z" stroke-linecap="round" />
</g>
</g>
</g>
</svg>